<?xml version="1.0" encoding="UTF-8" standalone="no"?>
<!-- Created with Inkscape (http://www.inkscape.org/) -->

<svg
   version="1.1"
   id="svg1"
   width="522.86633"
   height="458.79065"
   viewBox="0 0 522.86633 458.79065"
   sodipodi:docname="logo.svg"
   inkscape:export-filename="logo.png"
   inkscape:export-xdpi="96"
   inkscape:export-ydpi="96"
   inkscape:version="1.3 (0e150ed6c4, 2023-07-21)"
   xmlns:inkscape="http://www.inkscape.org/namespaces/inkscape"
   xmlns:sodipodi="http://sodipodi.sourceforge.net/DTD/sodipodi-0.dtd"
   xmlns="http://www.w3.org/2000/svg"
   xmlns:svg="http://www.w3.org/2000/svg">
  <sodipodi:namedview
     id="namedview1"
     pagecolor="#ffffff"
     bordercolor="#000000"
     borderopacity="0.25"
     inkscape:showpageshadow="2"
     inkscape:pageopacity="0.0"
     inkscape:pagecheckerboard="0"
     inkscape:deskcolor="#d1d1d1"
     inkscape:zoom="0.78818554"
     inkscape:cx="236.61941"
     inkscape:cy="111.64884"
     inkscape:window-width="2112"
     inkscape:window-height="1370"
     inkscape:window-x="20"
     inkscape:window-y="20"
     inkscape:window-maximized="1"
     inkscape:current-layer="svg1" />
  <defs
     id="defs1">
    <linearGradient
       id="swatch1"
       inkscape:swatch="solid">
      <stop
         style="stop-color:#22173c;stop-opacity:1;"
         offset="0"
         id="stop1" />
    </linearGradient>
  </defs>
  <g
     id="g1"
     transform="translate(-313.13875,-174.20934)">
    <path
       style="display:inline;fill:#22173c;fill-opacity:1"
       d="m 713.41351,630.75 2.525,-2.25 c 37.0946,-64.69595 74.2393,-129.36299 111.4365,-194 l 4.3051,-7.5 4.305,-7.5 0.01,-2.39534 0.01,-2.39534 C 799.74351,352.32955 763.53471,289.92214 727.35111,227.5 l -6.8617,-11.81445 -6.8617,-11.81445 -2.0172,-1.07956 -2.0172,-1.07955 -122.3928,0.51791 -122.3927,0.51791 -1.7895,1.87609 c -41.4125,69.44706 -81.1091,140.39611 -121.353,210.67608 l -0.4464,2.33521 -0.4464,2.3352 c 36.3924,61.14971 71.7188,122.96953 107.4163,184.52961 l 7.5716,13 7.5716,13 1.584,1.2182 1.584,1.21819 122.1942,0.0318 122.1943,0.0318 z m -211.7186,-80 c -28.7841,-49.10855 16.7687,28.31435 -75.6949,-130.58079 v -2.04922 -2.04922 c 27.0321,-46.73006 53.5612,-93.52398 81.2545,-139.86188 54.6314,-0.0644 109.2623,0.12059 163.8933,0.29111 27.0502,46.47208 53.9131,93.05277 80.8522,139.58921 v 1.97293 1.97292 c -26.0992,45.48595 -52.291,90.91877 -78.2851,136.46494 l -1.5124,1.75 -1.5125,1.75 h -81.7866 -81.7867 z"
       id="path1" />
    <path
       style="display:inline;fill:#ff0063;fill-opacity:1;stroke:#22173c;stroke-width:5;stroke-dasharray:none;stroke-opacity:1"
       d="m 688.41349,605.75 2.52502,-2.25 c 37.09455,-64.69595 74.23932,-129.36299 111.43645,-194 l 4.30509,-7.5 4.30508,-7.5 0.007,-2.39534 0.008,-2.39534 C 774.74353,327.32955 738.53474,264.92214 702.35111,202.5 l -6.86172,-11.81445 -6.86172,-11.81445 -2.01717,-1.07956 -2.01718,-1.07955 -122.39278,0.51791 -122.39279,0.51791 -1.7895,1.87609 c -41.41243,69.44706 -81.10908,140.39611 -121.35294,210.67608 l -0.4464,2.33521 -0.4464,2.3352 C 352.16487,456.1201 387.49127,517.93992 423.18879,579.5 l 7.57161,13 7.5716,13 1.584,1.2182 1.584,1.21819 122.19424,0.0318 L 685.88847,608 Z m -211.71855,-80 C 447.9108,476.64145 493.46357,554.06435 401,395.16921 v -2.04922 -2.04922 c 27.03211,-46.73006 53.56123,-93.52398 81.25449,-139.86188 54.63145,-0.0644 109.26228,0.12059 163.89332,0.29111 27.05017,46.47208 53.91304,93.05277 80.85219,139.58921 v 1.97293 1.97292 C 700.9008,440.52101 674.70897,485.95383 648.71489,531.5 l -1.51243,1.75 -1.51244,1.75 h -81.78667 -81.78668 z"
       id="path203" />
    <path
       style="display:inline;fill:#ffcb66;fill-opacity:1;stroke-width:1.042;stroke-dasharray:none;stroke:none;stroke-opacity:1"
       d="m 337.84352,394.22375 c -0.0507,-6.31721 111.3159,-196.18701 112.73798,-198.86242 4.34105,0.12819 218.62131,-0.28665 225.18343,0.54575 1.21351,0.15393 -6.46797,12.55689 -13.89423,24.28072 l -196.33086,0.014 c -25.98603,40.347 -100.73081,171.06773 -99.70155,173.77489 1.39853,3.67842 91.33703,162.56852 100.58042,172.3178 8.90944,-0.0703 180.92694,-0.11598 194.65948,-0.32694 4.96864,7.87214 9.3747,15.95007 14.71988,24.60012 -75.16964,0.36633 -150.36645,0.1465 -225.54528,0.1465 C 346.98314,413.80988 337.89314,400.40881 337.84352,394.22375 Z"
       id="path2" />
  </g>
</svg>
